<svg version="1.1" xmlns="http://www.w3.org/2000/svg" viewBox="0 0 130 183.5">
  <path d="M0 153.9h22.1v5.8H6.4v6.2h13.9v5.8H6.4V183H0v-29.1zm27.8 0h6.4V183h-6.4v-29.1zm13.7 0h5.9L61 171.8v-17.9h6.3V183h-5.4l-14.1-18.5V183h-6.3v-29.1zm31.3 14.6c0-8.3 6.5-15.1 15.5-15.1s15.4 6.7 15.4 15v.1c0 8.3-6.5 15-15.5 15s-15.4-6.8-15.4-15zm24.2 0c.2-5-3.6-9-8.5-9.2h-.3c-5.1 0-8.7 4.1-8.7 9v.1c-.2 4.9 3.6 9 8.5 9.1h.3c5.2 0 8.7-4 8.7-9zm10 10.2 3.8-4.5c2.4 2.2 5.5 3.4 8.7 3.5 2.6 0 4.2-1 4.2-2.7v-.1c0-1.6-1-2.5-5.9-3.7-5.9-1.5-9.6-3.1-9.6-8.9v-.1c0-5.3 4.2-8.8 10.2-8.8 3.9-.1 7.7 1.2 10.8 3.7l-3.3 4.8c-2.6-1.8-5.1-2.9-7.6-2.9s-3.7 1.1-3.7 2.5v.1c0 1.9 1.2 2.5 6.3 3.8 5.9 1.5 9.2 3.6 9.2 8.7v.1c0 5.8-4.4 9-10.7 9-4.6.1-9-1.5-12.4-4.5z" fill="#00b5e2"/>
  <path d="M102.4 48.2v-.1h-.1l-28.7-9.2-45.8 14.6v.2h.1L56.6 63l45.8-14.6v-.2z" fill="#3A84BA"/>
  <path d="M102.4 0v29.6L27.8 53.5V24l74.5-24zM27.8 72.2v52.5h29V92.5l45.6-14.6V48.3z" fill="#00b5e2"/>
</svg>