<?xml version="1.0" encoding="utf-8"?>
<!-- Generator: Adobe Illustrator 26.2.1, SVG Export Plug-In . SVG Version: 6.00 Build 0)  -->
<svg version="1.1" id="Layer_1" xmlns="http://www.w3.org/2000/svg" xmlns:xlink="http://www.w3.org/1999/xlink" x="0px" y="0px"
	 viewBox="0 0 748.3 487.3" style="enable-background:new 0 0 748.3 487.3;" xml:space="preserve">
<style type="text/css">
	.st0{fill:#FFFFFF;}
	.st1{fill:#004C97;}
</style>
<path class="st0" d="M14.4,412.2h23.2v-88.9H14.4V412.2z M55.2,412.2h23.2v-44.8c3.5-3.3,5.9-5.2,10.3-5.2c4.6,0,6.8,2.2,6.8,10.9
	v39.1h23.2v-42.1c0-17-6.2-27.9-21.1-27.9c-9.2,0-15.9,4.6-21.3,9.8h-0.5l-1.6-8.2h-19L55.2,412.2L55.2,412.2z M133.8,412.2H157
	v-44.8c3.5-3.3,5.9-5.2,10.3-5.2c4.6,0,6.8,2.2,6.8,10.9v39.1h23.2v-42.1c0-17-6.2-27.9-21.1-27.9c-9.2,0-15.9,4.6-21.3,9.8h-0.5
	l-1.6-8.2h-18.9L133.8,412.2L133.8,412.2L133.8,412.2z M270.8,375.2c0-18.3-9.5-33.1-29.4-33.1c-16.5,0-32.4,13.7-32.4,35.8
	c0,22.7,15.1,35.8,34.9,35.8c7.6,0,17.3-2.7,24.6-7.9l-7.6-13.9c-4.9,2.7-9.2,4.1-13.8,4.1c-6.6,0-13.6-2.3-16.1-10.9h38.9
	C270.2,383.4,270.8,379.3,270.8,375.2z M251.1,369.8H231c1.9-7.2,6.3-9.8,10.9-9.8C248.9,359.9,251.1,364.6,251.1,369.8L251.1,369.8
	z M324.6,342.2h-0.8c-6.6,0-14.2,4.1-19.2,13.4h-0.5l-1.6-11.8h-18.9v68.4h23.2v-38c3.2-8.5,9.2-11.5,14-11.5c2.7,0,4.8,0.5,7,1
	c-2.7-3.9-4.4-8.6-4.4-14.4C323.4,346.8,323.9,344.5,324.6,342.2L324.6,342.2z M361,413.8c21.9,0,34.3-13.4,34.3-28.4
	c0-12.3-6.2-20-17.2-24.3l-10.7-4.2c-8-3.1-13-4.6-13-8.9c0-4,3.5-6,9.2-6c6.5,0,11.6,2.2,17.6,6.4l11.6-14.8
	c-8.1-8.1-19.2-11.9-29.2-11.9c-19.2,0-32.7,12.4-32.7,27.6c0,12.9,8.2,20.9,17.7,24.7l10.9,4.6c7.4,3,11.9,4.4,11.9,8.6
	c0,4-3,6.3-10,6.3c-6.5,0-14.3-3.6-20.5-8.6L327.7,401C337.3,409.7,350,413.8,361,413.8L361,413.8z M471,378
	c0-22.7-16.2-35.8-33.5-35.8S404,355.3,404,378c0,22.7,16.2,35.8,33.5,35.8S471,400.7,471,378z M447.2,378c0,10.4-2.7,17-9.7,17
	s-9.7-6.6-9.7-17s2.7-17,9.7-17S447.2,367.6,447.2,378z M503.7,413.8c9.2,0,15.4-4.1,20.8-10.7h0.5l1.6,9h18.9v-68.4h-23.2v44
	c-3,4.4-5.4,6-9.7,6c-4.6,0-6.8-2.2-6.8-10.9v-39.1h-23.2v42.1C482.6,402.9,488.8,413.8,503.7,413.8z M561.2,412.2h23.2v-38
	c3.2-8.5,9.2-11.5,14-11.5c3,0,5.1,0.5,7.6,1.1l3.8-20.2c-1.9-0.8-4.2-1.4-8.4-1.4c-6.6,0-14.2,4.1-19.2,13.4h-0.5l-1.6-11.8h-18.9
	L561.2,412.2L561.2,412.2z M646.9,413.8c7,0,15.7-1.9,22.4-7.9l-8.9-15.3c-3.2,2.5-7,4.4-10.8,4.4c-7.3,0-13-6.6-13-17
	s5.1-17,13.8-17c2.4,0,4.6,0.8,7.6,3.3l10.8-15c-5.1-4.4-11.6-7.1-19.7-7.1c-19.2,0-36.2,13.1-36.2,35.8
	C612.8,400.7,627.7,413.8,646.9,413.8L646.9,413.8z M734.4,375.2c0-18.3-9.5-33.1-29.4-33.1c-16.5,0-32.4,13.7-32.4,35.8
	c0,22.7,15.1,35.8,34.9,35.8c7.6,0,17.3-2.7,24.6-7.9l-7.6-13.9c-4.9,2.7-9.2,4.1-13.8,4.1c-6.6,0-13.6-2.3-16.1-10.9h38.9
	C733.9,383.4,734.4,379.3,734.4,375.2L734.4,375.2z M714.7,369.8h-20.1c1.9-7.2,6.3-9.8,10.9-9.8
	C712.5,359.9,714.7,364.6,714.7,369.8L714.7,369.8z"/>
<path class="st0" d="M26.1,473.1c6.9,0,11.3-4.1,11.3-9.4c0-5.1-3.1-7.3-7-9l-4.9-2.2c-2.6-1.1-5.6-2.4-5.6-5.8
	c0-3.2,2.6-5.2,6.6-5.2c3.2,0,5.7,1.3,7.7,3.2l2-2.4c-2.3-2.4-5.7-4.1-9.8-4.1c-5.9,0-10.3,3.7-10.3,8.8c0,5,3.7,7.3,6.8,8.6
	l4.9,2.2c3.2,1.4,5.7,2.6,5.7,6.2c0,3.5-2.8,5.8-7.4,5.8c-3.6,0-7-1.7-9.4-4.3l-2.3,2.6C17.3,471.2,21.3,473.1,26.1,473.1z
	 M51.7,472.5h3.8v-13.6h5.7c7.4,0,12.3-3.3,12.3-10.2c0-7.3-5-9.8-12.5-9.8h-9.3V472.5z M55.5,455.7v-13.8h5c6.1,0,9.3,1.6,9.3,6.7
	c0,5-2.9,7.1-9.1,7.1L55.5,455.7L55.5,455.7z M88.2,472.5h19.6v-3.2H92v-12.9h12.9v-3.2H92v-11.1h15.3v-3.2H88.2V472.5L88.2,472.5z
	 M135.2,473.1c4.4,0,7.6-1.8,10.2-4.9l-2.1-2.4c-2.3,2.5-4.7,3.9-8,3.9c-6.6,0-10.8-5.5-10.8-14.2s4.3-14,10.9-14
	c2.9,0,5.2,1.3,7,3.3l2.1-2.5c-1.9-2.1-5.1-4.1-9.1-4.1c-8.6,0-14.8,6.7-14.8,17.5C120.7,466.6,126.9,473.1,135.2,473.1L135.2,473.1
	z M159.6,472.5h3.8v-33.7h-3.8V472.5z M199.1,472.5h4l-11.5-33.6h-4.2l-11.5,33.6h3.8l3.4-10.6h12.5L199.1,472.5z M184.2,458.9
	l1.7-5.4c1.3-3.8,2.4-7.5,3.4-11.4h0.2c1.1,3.9,2.3,7.6,3.5,11.4l1.7,5.4H184.2L184.2,458.9z M215.7,472.5h18.6v-3.2h-14.9v-30.4
	h-3.8v33.6H215.7z M266,472.5h3.8v-33.7H266V472.5z M286.8,472.5h3.6v-18.4c0-3.5-0.3-6.9-0.5-10.3h0.2l3.7,6.9l12.7,21.8h3.9v-33.6
	h-3.6v18.2c0,3.4,0.3,7.1,0.5,10.5h-0.2l-3.7-6.9l-12.7-21.8h-3.9V472.5L286.8,472.5z M334.5,472.5h3.8v-30.4h10.3v-3.2h-24.4v3.2
	h10.3L334.5,472.5L334.5,472.5z M362.5,472.5h19.6v-3.2h-15.8v-12.9h12.9v-3.2h-12.9v-11.1h15.3v-3.2h-19.1V472.5L362.5,472.5z
	 M419.8,472.5l-8.8-14.9c4.8-1,7.8-4.1,7.8-9.4c0-6.9-4.8-9.3-11.6-9.3h-10.3v33.6h3.8V458h6.4l8.4,14.5L419.8,472.5L419.8,472.5z
	 M400.8,441.9h5.9c5.4,0,8.4,1.6,8.4,6.3c0,4.5-3,6.7-8.4,6.7h-5.9V441.9z M433.5,472.5h19.6v-3.2h-15.8v-12.9h12.9v-3.2h-12.9
	v-11.1h15.3v-3.2h-19.1V472.5L433.5,472.5z M477.2,473.1c6.9,0,11.3-4.1,11.3-9.4c0-5.1-3.1-7.3-7-9l-4.9-2.2
	c-2.6-1.1-5.6-2.4-5.6-5.8c0-3.2,2.6-5.2,6.6-5.2c3.2,0,5.7,1.3,7.7,3.2l2-2.4c-2.3-2.4-5.7-4.1-9.8-4.1c-5.9,0-10.3,3.7-10.3,8.8
	c0,5,3.7,7.3,6.8,8.6l4.9,2.2c3.2,1.4,5.7,2.6,5.7,6.2c0,3.5-2.8,5.8-7.4,5.8c-3.6,0-7-1.7-9.4-4.3l-2.3,2.6
	C468.4,471.2,472.4,473.1,477.2,473.1L477.2,473.1z M508.9,472.5h3.8v-30.4H523v-3.2h-24.4v3.2h10.3L508.9,472.5L508.9,472.5z
	 M567.7,473.1c4.5,0,8.1-1.6,10.3-3.9v-13.9h-10.9v3.2h7.4v9.2c-1.4,1.3-3.9,2.2-6.5,2.2c-7.3,0-11.4-5.5-11.4-14.2s4.5-14,11.5-14
	c3.4,0,5.7,1.5,7.4,3.3l2.1-2.5c-1.9-2-4.9-4.1-9.6-4.1c-8.9,0-15.3,6.7-15.3,17.5C552.7,466.6,558.9,473.1,567.7,473.1L567.7,473.1
	z M616.7,472.5l-8.8-14.9c4.8-1,7.8-4.1,7.8-9.4c0-6.9-4.8-9.3-11.6-9.3h-10.3v33.6h3.8V458h6.4l8.4,14.5L616.7,472.5L616.7,472.5z
	 M597.7,441.9h5.9c5.4,0,8.4,1.6,8.4,6.3c0,4.5-3,6.7-8.4,6.7h-5.9V441.9z M642.7,473.1c8.4,0,14.2-6.8,14.2-17.6
	c0-10.7-5.9-17.3-14.2-17.3c-8.4,0-14.3,6.6-14.3,17.3C628.4,466.3,634.3,473.1,642.7,473.1z M642.7,469.8
	c-6.3,0-10.4-5.6-10.4-14.2s4.1-14,10.4-14c6.2,0,10.3,5.4,10.3,14S648.9,469.8,642.7,469.8z M683.7,473.1c6.6,0,11.9-3.5,11.9-14.2
	v-20H692v20c0,8.3-3.7,10.9-8.3,10.9c-4.5,0-8.1-2.6-8.1-10.9v-20h-3.8v20C671.8,469.6,677.1,473.1,683.7,473.1L683.7,473.1z
	 M712.6,472.5h3.8v-13.6h5.7c7.4,0,12.3-3.3,12.3-10.2c0-7.3-5-9.8-12.5-9.8h-9.3V472.5z M716.4,455.7v-13.8h5
	c6.1,0,9.3,1.6,9.3,6.7c0,5-2.9,7.1-9.1,7.1L716.4,455.7L716.4,455.7z"/>
<path class="st1" d="M517.7,129.3V14.4c-8,7.6-16.5,14.7-25.5,21.2v78C492.2,113.6,517.7,129.3,517.7,129.3z M466.6,134.7v-83
	c-8.2,4.5-16.8,8.4-25.5,11.9v71.1H466.6z M415.5,134.7V72.2c-8.3,2.3-16.9,4.2-25.5,5.6v57L415.5,134.7
	C415.5,134.8,415.5,134.7,415.5,134.7z M390,184.2v49.7h25.5v-49.7H390z M441.1,184.2v49.7h25.5v-49.7H441.1z M492.1,207.4v26.5
	h25.5v-42.2L492.1,207.4L492.1,207.4z"/>
<path class="st0" d="M478.1,100.8v29.7H185.8v44.9h292.3v29.8L563,153L478.1,100.8L478.1,100.8z"/>
<path class="st1" d="M185.8,14.4v219.5h25.5V35.6C202.3,29.1,193.8,22,185.8,14.4z M287.9,72.2v161.7h25.5V77.8
	C304.7,76.4,296.2,74.5,287.9,72.2z M236.8,51.7v182.2h25.6V63.6C253.6,60.1,245,56.2,236.8,51.7z M338.9,80.5v153.4h25.5V80.5
	c-4.2,0.2-8.5,0.3-12.8,0.3C347.4,80.8,343.2,80.7,338.9,80.5z"/>
</svg>
